REM DIRINDEX 1\3,1\4,1\5,1\6,1\2\7,1\2\8,1\2\9,1\10
REM DIRNAME folder01,folder02,folder03,folder04,folder05,folder06,folder07,folder08,folder09,folder10
TITLE ""
FILE "2-25 Level 5-752-761.mp3" MP3
  TRACK 01 AUDIO
    TITLE "0:"
    INDEX 01 00:00:00
  TRACK 02 AUDIO
    TITLE "7:cjc056_2589"
    INDEX 01 00:00:07
  TRACK 03 AUDIO
    TITLE "0:"
    INDEX 01 00:01:07
  TRACK 04 AUDIO
    TITLE "8:cjc056_2590"
    INDEX 01 00:01:17
  TRACK 05 AUDIO
    TITLE "0:"
    INDEX 01 00:02:28
  TRACK 06 AUDIO
    TITLE "9:cjc056_2591"
    INDEX 01 00:02:42
  TRACK 07 AUDIO
    TITLE "0:"
    INDEX 01 00:04:09
  TRACK 08 AUDIO
    TITLE "7:cjc056_2592"
    INDEX 01 00:04:60
  TRACK 09 AUDIO
    TITLE "0:"
    INDEX 01 00:05:61
  TRACK 10 AUDIO
    TITLE "8:cjc056_2593"
    INDEX 01 00:05:73
  TRACK 11 AUDIO
    TITLE "0:"
    INDEX 01 00:07:25
  TRACK 12 AUDIO
    TITLE "9:cjc056_2594"
    INDEX 01 00:07:35
  TRACK 13 AUDIO
    TITLE "0:"
    INDEX 01 00:10:02
  TRACK 14 AUDIO
    TITLE "7:cjc056_2595"
    INDEX 01 00:10:51
  TRACK 15 AUDIO
    TITLE "0:"
    INDEX 01 00:11:62
  TRACK 16 AUDIO
    TITLE "8:cjc056_2596"
    INDEX 01 00:12:01
  TRACK 17 AUDIO
    TITLE "0:"
    INDEX 01 00:13:33
  TRACK 18 AUDIO
    TITLE "9:cjc056_2597"
    INDEX 01 00:13:47
  TRACK 19 AUDIO
    TITLE "0:"
    INDEX 01 00:16:02
  TRACK 20 AUDIO
    TITLE "7:cjc056_2598"
    INDEX 01 00:16:51
  TRACK 21 AUDIO
    TITLE "0:"
    INDEX 01 00:17:70
  TRACK 22 AUDIO
    TITLE "8:cjc056_2599"
    INDEX 01 00:18:09
  TRACK 23 AUDIO
    TITLE "0:"
    INDEX 01 00:19:28
  TRACK 24 AUDIO
    TITLE "9:cjc056_2600"
    INDEX 01 00:19:38
  TRACK 25 AUDIO
    TITLE "0:"
    INDEX 01 00:21:35
  TRACK 26 AUDIO
    TITLE "8:cjc056_2601"
    INDEX 01 00:21:62
  TRACK 27 AUDIO
    TITLE "0:"
    INDEX 01 00:23:44
  TRACK 28 AUDIO
    TITLE "9:cjc056_2602"
    INDEX 01 00:23:53
  TRACK 29 AUDIO
    TITLE "0:"
    INDEX 01 00:27:02
  TRACK 30 AUDIO
    TITLE "7:cjc056_2603"
    INDEX 01 00:27:51
  TRACK 31 AUDIO
    TITLE "0:"
    INDEX 01 00:28:57
  TRACK 32 AUDIO
    TITLE "8:cjc056_2604"
    INDEX 01 00:28:68
  TRACK 33 AUDIO
    TITLE "0:"
    INDEX 01 00:30:14
  TRACK 34 AUDIO
    TITLE "9:cjc056_2605"
    INDEX 01 00:30:28
  TRACK 35 AUDIO
    TITLE "0:"
    INDEX 01 00:32:70
  TRACK 36 AUDIO
    TITLE "7:cjc056_2606"
    INDEX 01 00:33:46
  TRACK 37 AUDIO
    TITLE "0:"
    INDEX 01 00:34:51
  TRACK 38 AUDIO
    TITLE "8:cjc056_2607"
    INDEX 01 00:34:63
  TRACK 39 AUDIO
    TITLE "0:"
    INDEX 01 00:35:74
  TRACK 40 AUDIO
    TITLE "9:cjc056_2608"
    INDEX 01 00:36:15
  TRACK 41 AUDIO
    TITLE "0:"
    INDEX 01 00:38:71
  TRACK 42 AUDIO
    TITLE "7:cjc056_2609"
    INDEX 01 00:39:47
  TRACK 43 AUDIO
    TITLE "0:"
    INDEX 01 00:40:52
  TRACK 44 AUDIO
    TITLE "8:cjc056_2610"
    INDEX 01 00:40:64
  TRACK 45 AUDIO
    TITLE "0:"
    INDEX 01 00:42:06
  TRACK 46 AUDIO
    TITLE "9:cjc056_2611"
    INDEX 01 00:42:21
  TRACK 47 AUDIO
    TITLE "0:"
    INDEX 01 00:45:35
  TRACK 48 AUDIO
    TITLE "7:cjc056_2612"
    INDEX 01 00:46:07
  TRACK 49 AUDIO
    TITLE "0:"
    INDEX 01 00:47:13
  TRACK 50 AUDIO
    TITLE "8:cjc056_2613"
    INDEX 01 00:47:27
  TRACK 51 AUDIO
    TITLE "0:"
    INDEX 01 00:48:18
  TRACK 52 AUDIO
    TITLE "9:cjc056_2614"
    INDEX 01 00:48:28
  TRACK 53 AUDIO
    TITLE "0:"
    INDEX 01 00:50:50
  TRACK 54 AUDIO
    TITLE "7:cjc056_2615"
    INDEX 01 00:51:26
  TRACK 55 AUDIO
    TITLE "0:"
    INDEX 01 00:52:32
  TRACK 56 AUDIO
    TITLE "8:cjc056_2616"
    INDEX 01 00:52:41
  TRACK 57 AUDIO
    TITLE "0:"
    INDEX 01 00:53:17
  TRACK 58 AUDIO
    TITLE "9:cjc056_2617"
    INDEX 01 00:53:31
  TRACK 59 AUDIO
    TITLE "0:"
    INDEX 01 00:55:48
  TRACK 60 AUDIO
    TITLE "7:cjc056_2618"
    INDEX 01 00:56:18
  TRACK 61 AUDIO
    TITLE "0:"
    INDEX 01 00:57:27
  TRACK 62 AUDIO
    TITLE "8:cjc056_2619"
    INDEX 01 00:57:41
  TRACK 63 AUDIO
    TITLE "0:"
    INDEX 01 00:58:60
  TRACK 64 AUDIO
    TITLE "9:cjc056_2620"
    INDEX 01 00:58:67
  TRACK 65 AUDIO
    TITLE "0:"
    INDEX 01 01:01:60
